# xmcd
#
# Track frame offsets: 
#        150
#        25667
#        44262
#        66816
#        88486
#        110031
#        134275
#        154899
#
# Disc length: 2328 seconds
#
# Revision: 3
# Processed by: cddbd v1.5.2PL0 Copyright (c) Steve Scherf et al.
# Submitted via: ExactAudioCopyFreeDBPlugin 1.0
#
DISCID=6c091608
DTITLE=Patti LaBelle - I'm in Love Again
DYEAR=1983
DGENRE=Soul
TTITLE0=I'm in Love Again
TTITLE1=Lover Man (Oh Where Can He Be?)
TTITLE2=Love, Need, and Want You
TTITLE3=If Only You Knew
TTITLE4=Body Language
TTITLE5=I'll Never, Never Give Up
TTITLE6=Love Bankrupt
TTITLE7=When Am I Gonna Find True Love
EXTD=
EXTT0=
EXTT1=
EXTT2=
EXTT3=
EXTT4=
EXTT5=
EXTT6=
EXTT7=
PLAYORDER=
